<svg xmlns="http://www.w3.org/2000/svg" xmlns:xlink="http://www.w3.org/1999/xlink" width="529" zoomAndPan="magnify" viewBox="0 0 396.75 396.749985" height="529" preserveAspectRatio="xMidYMid meet" version="1.0"><defs><g/><clipPath id="9909066f23"><path d="M 0.105469 71 L 86 71 L 86 178 L 0.105469 178 Z M 0.105469 71 " clip-rule="nonzero"/></clipPath><clipPath id="aea35873fc"><path d="M 25 0.0195312 L 245 0.0195312 L 245 178 L 25 178 Z M 25 0.0195312 " clip-rule="nonzero"/></clipPath><clipPath id="1691eba2f3"><path d="M 179 92 L 359.160156 92 L 359.160156 193.820312 L 179 193.820312 Z M 179 92 " clip-rule="nonzero"/></clipPath><clipPath id="c8cbb103fb"><rect x="0" width="181" y="0" height="102"/></clipPath><clipPath id="962085ada7"><rect x="0" width="360" y="0" height="194"/></clipPath></defs><g transform="matrix(1, 0, 0, 1, 21, 94)"><g clip-path="url(#962085ada7)"><g clip-path="url(#9909066f23)"><path fill="#ffffff" d="M 85.179688 136.78125 L 0.3125 71.519531 L 25.480469 177.148438 Z M 85.179688 136.78125 " fill-opacity="1" fill-rule="nonzero"/></g><g clip-path="url(#aea35873fc)"><path fill="#76bdd3" d="M 131.289062 177.148438 L 244.988281 0.046875 L 25.5 177.148438 Z M 131.289062 177.148438 " fill-opacity="1" fill-rule="nonzero"/></g><g clip-path="url(#1691eba2f3)"><g transform="matrix(1, 0, 0, 1, 179, 92)"><g clip-path="url(#c8cbb103fb)"><g fill="#ffffff" fill-opacity="1"><g transform="translate(0.0577714, 80.961974)"><g><path d="M 31.96875 0.640625 C 26.425781 0.640625 21.59375 -0.554688 17.46875 -2.953125 C 13.351562 -5.347656 10.191406 -8.75 7.984375 -13.15625 C 5.785156 -17.570312 4.6875 -22.796875 4.6875 -28.828125 C 4.6875 -34.796875 5.785156 -39.988281 7.984375 -44.40625 C 10.191406 -48.820312 13.351562 -52.210938 17.46875 -54.578125 C 21.59375 -56.941406 26.425781 -58.125 31.96875 -58.125 C 35.894531 -58.125 39.539062 -57.519531 42.90625 -56.3125 C 46.269531 -55.101562 49.109375 -53.34375 51.421875 -51.03125 L 48.515625 -44.890625 C 45.828125 -47.097656 43.175781 -48.695312 40.5625 -49.6875 C 37.957031 -50.6875 35.117188 -51.1875 32.046875 -51.1875 C 26.078125 -51.1875 21.460938 -49.25 18.203125 -45.375 C 14.953125 -41.5 13.328125 -35.984375 13.328125 -28.828125 C 13.328125 -21.609375 14.953125 -16.046875 18.203125 -12.140625 C 21.460938 -8.242188 26.078125 -6.296875 32.046875 -6.296875 C 35.117188 -6.296875 37.957031 -6.789062 40.5625 -7.78125 C 43.175781 -8.78125 45.828125 -10.382812 48.515625 -12.59375 L 51.421875 -6.453125 C 49.109375 -4.140625 46.269531 -2.378906 42.90625 -1.171875 C 39.539062 0.0351562 35.894531 0.640625 31.96875 0.640625 Z M 31.96875 0.640625 "/></g></g></g><g fill="#ffffff" fill-opacity="1"><g transform="translate(55.276251, 80.961974)"><g><path d="M 52.796875 0 L 44 0 L 36.8125 -19.140625 C 36.0625 -21.179688 34.957031 -22.59375 33.5 -23.375 C 32.050781 -24.15625 30.0625 -24.546875 27.53125 -24.546875 L 14.9375 -24.546875 L 14.9375 0 L 6.703125 0 L 6.703125 -57.484375 L 30.359375 -57.484375 C 36.648438 -57.484375 41.476562 -56.082031 44.84375 -53.28125 C 48.207031 -50.488281 49.890625 -46.476562 49.890625 -41.25 C 49.890625 -37.488281 48.894531 -34.285156 46.90625 -31.640625 C 44.914062 -29.003906 42.085938 -27.148438 38.421875 -26.078125 C 41.765625 -25.484375 44.191406 -23.113281 45.703125 -18.96875 Z M 29.390625 -31.25 C 33.585938 -31.25 36.707031 -32.066406 38.75 -33.703125 C 40.800781 -35.347656 41.828125 -37.8125 41.828125 -41.09375 C 41.828125 -44.375 40.816406 -46.804688 38.796875 -48.390625 C 36.773438 -49.984375 33.640625 -50.78125 29.390625 -50.78125 L 14.9375 -50.78125 L 14.9375 -31.25 Z M 29.390625 -31.25 "/></g></g></g><g fill="#ffffff" fill-opacity="1"><g transform="translate(111.544205, 80.961974)"><g><path d="M 55.0625 -57.484375 L 61.765625 -57.484375 L 61.765625 0 L 54.25 0 L 54.25 -39.484375 L 37.21875 0 L 31.484375 0 L 14.203125 -39.234375 L 14.296875 0 L 6.78125 0 L 6.78125 -57.484375 L 13.484375 -57.484375 L 34.390625 -10.015625 Z M 55.0625 -57.484375 "/></g></g></g></g></g></g></g></g></svg>