<?xml version="1.0" encoding="UTF-8"?><svg xmlns="http://www.w3.org/2000/svg" viewBox="0 0 259.77 89.72"><defs><style>.d{fill:#033333;}.e{fill:#76bdd3;}</style></defs><g id="a"/><g id="b"><g id="c"><g><g><path class="d" d="M106.13,45.88h20.92v4.01h-7.98v25.97h-4.92v-25.97h-8.02v-4.01Z"/><path class="d" d="M144.82,45.48c-8.45,0-15.31,6.34-15.31,15.33s6.86,15.35,15.31,15.35,15.3-6.35,15.3-15.35-6.77-15.33-15.3-15.33Zm0,26.41c-5.96,0-10.27-4.31-10.27-11.08s4.31-11,10.27-11,10.27,4.22,10.27,11-4.31,11.08-10.27,11.08Z"/><path class="e" d="M138.52,40.27c0-1.42,1.12-2.59,2.59-2.59s2.59,1.17,2.59,2.59-1.17,2.59-2.59,2.59-2.59-1.12-2.59-2.59Z"/><path class="e" d="M145.94,40.27c0-1.42,1.12-2.59,2.59-2.59s2.59,1.17,2.59,2.59-1.16,2.59-2.59,2.59-2.59-1.12-2.59-2.59Z"/><path class="d" d="M188.73,45.84v30.02h-4.92l-14.79-22.39v22.39h-4.92v-30.02h4.92l14.79,22.34v-22.34h4.92Z"/><path class="d" d="M205.72,45.88h4.96v21.61c0,5.43-3.67,8.67-8.84,8.67s-8.84-3.24-8.84-8.67h4.96c.04,2.5,1.25,4.31,3.88,4.31s3.88-1.81,3.88-4.31v-21.61Z"/><path class="d" d="M234.36,49.85h-11.65v8.8h10.35v4.01h-10.35v9.19h11.65v4.01h-16.56v-30.02h16.56v4.01Z"/><path class="d" d="M249.41,76.16c-6,0-10.61-3.28-10.61-8.58h5.26c.22,2.46,1.94,4.44,5.35,4.44s5.39-1.86,5.39-4.4c0-7.25-15.92-2.54-15.92-13.59,0-5.26,4.18-8.54,10.31-8.54,5.74,0,9.79,3.02,10.22,8.15h-5.43c-.17-2.03-1.94-3.88-5.05-3.97-2.85-.09-5.05,1.29-5.05,4.18,0,6.77,15.87,2.54,15.87,13.5,0,4.49-3.67,8.8-10.35,8.8Z"/></g><g><polygon class="d" points="42.89 69.1 0 36.11 12.72 89.5 42.89 69.1"/><polygon class="e" points="66.18 89.5 123.64 0 123.64 0 12.72 89.5 66.18 89.5"/></g><g><path class="d" d="M110.37,81.17c1.86,0,3.37,1,3.93,2.71h-1.93c-.4-.8-1.12-1.2-2.01-1.2-1.46,0-2.5,1.07-2.5,2.77s1.04,2.77,2.5,2.77c.9,0,1.62-.39,2.01-1.21h1.93c-.56,1.73-2.07,2.71-3.93,2.71-2.41,0-4.24-1.76-4.24-4.27s1.83-4.28,4.24-4.28Z"/><path class="d" d="M128.25,89.72c-2.36,0-4.29-1.77-4.29-4.29s1.93-4.28,4.29-4.28,4.28,1.77,4.28,4.28-1.91,4.29-4.28,4.29Zm0-1.5c1.51,0,2.55-1.09,2.55-2.79s-1.04-2.77-2.55-2.77-2.57,1.07-2.57,2.77,1.04,2.79,2.57,2.79Z"/><path class="d" d="M149.56,81.26v8.38h-1.68l-3.8-5.74v5.74h-1.68v-8.38h1.68l3.8,5.75v-5.75h1.68Z"/><path class="d" d="M162.73,89.72c-1.74,0-3.08-.91-3.1-2.49h1.8c.05,.67,.49,1.11,1.27,1.11s1.26-.42,1.26-1.02c0-1.81-4.31-.72-4.3-3.75,0-1.51,1.22-2.42,2.95-2.42s2.89,.87,3,2.38h-1.85c-.04-.55-.48-.98-1.2-1-.66-.02-1.15,.3-1.15,.98,0,1.68,4.29,.74,4.29,3.69,0,1.32-1.05,2.5-2.96,2.5Z"/><path class="d" d="M175.74,81.28h1.68v5.18c0,1.15,.62,1.75,1.69,1.75s1.7-.6,1.7-1.75v-5.18h1.69v5.16c0,2.21-1.58,3.28-3.41,3.28s-3.34-1.08-3.34-3.28v-5.16Z"/><path class="d" d="M194.42,81.28v7.03h2.76v1.33h-4.43v-8.36h1.68Z"/><path class="d" d="M206.43,81.28h6.14v1.35h-2.23v7.01h-1.68v-7.01h-2.23v-1.35Z"/><path class="d" d="M222.41,81.28h1.68v8.36h-1.68v-8.36Z"/><path class="d" d="M241.53,81.26v8.38h-1.68l-3.8-5.74v5.74h-1.68v-8.38h1.68l3.8,5.75v-5.75h1.68Z"/><path class="d" d="M259.56,83.79h-1.93c-.38-.71-1.08-1.08-1.97-1.08-1.5,0-2.54,1.07-2.54,2.73s1.05,2.76,2.61,2.76c1.29,0,2.12-.74,2.37-1.93h-2.88v-1.28h4.53v1.46c-.34,1.7-1.86,3.26-4.09,3.26-2.43,0-4.28-1.76-4.28-4.27s1.85-4.28,4.27-4.28c1.87,0,3.36,.95,3.9,2.62Z"/></g></g></g></g></svg>